<?xml version="1.0" encoding="UTF-8"?>
<svg id="Layer_2" data-name="Layer 2" xmlns="http://www.w3.org/2000/svg" viewBox="0 0 88.24 87.06">
  <defs>
    <style>
      .cls-1 {
        fill: #f6f6f6;
      }
    </style>
  </defs>
  <g id="Layer_1-2" data-name="Layer 1">
    <path class="cls-1" d="M39.89,64.15c-3.05-3.48-5.15-7.76-7.34-11.8-1.28-2.36-2.71-4.63-4.2-6.86s-2.82-4.81-5.52-5.65c-1.99-.62-3.35,1.31-3.08,3.08,1.46,9.31.32,18.82-.75,28.1-.24,2.06,2.98,3.44,4.27,1.77,6.44-8.33,12.88-16.66,18.54-25.55,1.19-1.86-.77-4.24-2.82-3.67-10.34,2.86-20.45,6.45-30.31,10.67-1.95.83-1.41,4.19.6,4.57,4.91.93,9.89,1.82,14.64,3.39s8.8,3.56,12.94,5.89c2.81,1.58,5.33-2.74,2.52-4.32-4.38-2.46-8.95-4.64-13.71-6.25s-10.01-2.58-15.07-3.54l.6,4.57c9.46-4.04,19.2-7.42,29.12-10.16l-2.82-3.67c-5.43,8.53-11.58,16.55-17.76,24.54l4.27,1.77c1.13-9.8,2.11-19.61.57-29.43l-3.08,3.08c.69.21,1.26,1.46,1.62,2,.7,1.04,1.4,2.07,2.08,3.12,1.35,2.09,2.57,4.24,3.76,6.43,2.17,4,4.39,8.04,7.4,11.48.89,1.02,2.63.91,3.54,0,1.01-1.01.89-2.52,0-3.54h0Z"/>
    <path class="cls-1" d="M56.69,26.36c3.2-.04,5.56-1.96,7.94-3.86s4.58-3.64,6.86-5.48c4.37-3.52,8.64-7.14,12.79-10.92,2.38-2.17-1.16-5.7-3.54-3.54-3.85,3.51-7.81,6.89-11.86,10.17-1.99,1.61-4,3.21-6,4.8-1.68,1.34-3.88,3.79-6.19,3.82-3.21.04-3.22,5.04,0,5h0Z"/>
    <path class="cls-1" d="M27.46,1.28C19.64,8.62,10.85,14.81,1.34,19.76c-2.08,1.08-1.24,4.99,1.26,4.66,3.48-.46,6.37-2.12,9.38-3.82,2.84-1.59,5.67-3.2,8.46-4.87,5.7-3.4,11.22-7.1,16.29-11.38,2.16-1.82-.67-5.5-3.03-3.93-8.46,5.63-16.28,12.19-23.26,19.57-1.8,1.9.03,4.62,2.43,4.18,5.56-1.03,10.4-4.93,14.91-8.12,4.88-3.45,9.61-7.12,14.19-10.95l-3.93-3.03c-2.27,3.42-6.12,5.41-8.97,8.28s-4.38,6.91-7.82,8.94c-2.35,1.39-.8,5.62,1.93,4.57,10.41-4.03,19.67-10.72,26.55-19.54l-3.93-3.03c-4.74,6.34-9.48,12.68-14,19.18-.7,1.01-.28,2.53.64,3.23,1.06.79,2.3.62,3.28-.2,7.65-6.32,15.61-12.24,23.85-17.77l-3.42-3.42c-4.08,6.27-8.62,12.2-13.61,17.76-1.79,2,.57,5.63,3.03,3.93,8.7-6.02,15.81-14.38,25.56-18.81l-3.03-3.93c-5.56,6.12-11.12,12.24-16.68,18.36-.83.92-.99,2.28-.2,3.28.71.89,2.2,1.38,3.23.64,7.96-5.75,15.92-11.51,23.88-17.26,1.09-.79,1.63-2.17.9-3.42-.63-1.08-2.32-1.69-3.42-.9-7.96,5.75-15.92,11.51-23.88,17.26l3.03,3.93c5.56-6.12,11.12-12.24,16.68-18.36,1.98-2.18-.48-5.08-3.03-3.93-9.77,4.44-16.85,12.79-25.56,18.81l3.03,3.93c5.27-5.87,10.09-12.15,14.39-18.77,1.34-2.06-1.35-4.81-3.42-3.42-8.59,5.76-16.89,11.96-24.86,18.55l3.93,3.03c4.52-6.5,9.26-12.85,14-19.18,1.68-2.25-2.18-5.27-3.93-3.03-6.33,8.11-14.73,14.54-24.34,18.26l1.93,4.57c3.95-2.34,5.7-6.57,8.83-9.72s7.2-5.43,9.76-9.3c.68-1.03.3-2.52-.64-3.23-1.05-.79-2.3-.63-3.28.2-4.26,3.57-8.65,6.96-13.18,10.17-2.19,1.55-4.4,3.08-6.67,4.52s-4.45,2.61-7.05,3.09l2.43,4.18c6.7-7.08,14.14-13.39,22.25-18.79l-3.03-3.93c-4.63,3.91-9.7,7.25-14.89,10.36-2.6,1.56-5.23,3.06-7.86,4.54-2.4,1.35-5.05,3.32-7.85,3.69l1.26,4.66c9.88-5.14,19.01-11.65,27.14-19.26,2.35-2.2-1.19-5.74-3.54-3.54h0Z"/>
    <path class="cls-1" d="M80.41,5.49c-7.07,6.76-14.14,13.52-21.21,20.28-1.73,1.65.04,5.07,2.43,4.18,7.92-2.94,15.43-6.83,22.33-11.71l-3.03-3.93c-7.25,8.34-14.51,16.68-22.13,24.68-1.89,1.98.6,5.58,3.03,3.93,7.53-5.12,15.06-10.24,22.59-15.36l-3.03-3.93c-8.18,9.01-16.36,18.02-24.54,27.03-1.88,2.07.49,5.35,3.03,3.93,9-5.05,17.84-10.38,26.51-15.98l-3.03-3.93c-7.83,9.09-18.55,14.92-27.01,23.34-1.81,1.8.05,4.75,2.43,4.18,9.37-2.24,18.43-5.7,26.93-10.25l-3.03-3.93c-8.12,7.65-16.25,15.29-24.37,22.94-.9.85-.94,2.34-.2,3.28.82,1.02,2.07,1.2,3.23.64,8.64-4.12,16.86-9.02,25.07-13.92l-3.03-3.93c-8.45,8.6-16.91,17.2-25.36,25.8-.87.88-.97,2.31-.2,3.28.83,1.05,2.05,1.16,3.23.64,9.26-4.05,16.75-11.07,24-17.94l-3.54-3.54c-3.66,4.33-7.32,8.66-10.98,12.98-.87,1.03-1.01,2.52,0,3.54.89.89,2.66,1.04,3.54,0,3.66-4.33,7.32-8.66,10.98-12.98,2.06-2.43-1.17-5.78-3.54-3.54-6.97,6.6-14.08,13.26-22.99,17.16l3.03,3.93c8.45-8.6,16.91-17.2,25.36-25.8,1.97-2-.56-5.4-3.03-3.93-8.21,4.9-16.43,9.8-25.07,13.92l3.03,3.93c8.12-7.65,16.25-15.29,24.37-22.94,2.12-1.99-.58-5.24-3.03-3.93-8.13,4.35-16.77,7.6-25.74,9.74l2.43,4.18c8.46-8.41,19.18-14.25,27.01-23.34.81-.94,1.01-2.26.2-3.28-.74-.93-2.16-1.33-3.23-.64-8.67,5.6-17.51,10.92-26.51,15.98l3.03,3.93c8.18-9.01,16.36-18.02,24.54-27.03,1.81-2-.57-5.6-3.03-3.93-7.53,5.12-15.06,10.24-22.59,15.36l3.03,3.93c7.63-8,14.88-16.34,22.13-24.68.81-.94,1-2.27.2-3.28-.72-.9-2.19-1.37-3.23-.64-6.54,4.62-13.63,8.42-21.14,11.2l2.43,4.18c7.07-6.76,14.14-13.52,21.21-20.28,2.33-2.23-1.21-5.76-3.54-3.54h0Z"/>
  </g>
</svg>